# This file uses centimeters as units for non-parametric coordinates.

mtllib Log.mtl
g default
v 1.600130 10.205950 25.190586
v 3.882713 7.923367 25.190588
v 4.718199 4.805298 25.190586
v 3.882713 1.687230 25.190588
v 1.600130 -0.595354 25.190586
v -1.517938 -1.430838 25.190588
v -4.636006 -0.595354 25.190588
v -6.918591 1.687230 25.190588
v -7.754075 4.805298 25.190588
v -6.918591 7.923367 25.190588
v -4.636006 10.205950 25.190588
v -1.517938 11.041435 25.190588
v 1.600131 10.205950 -26.943352
v 3.882715 7.923367 -26.943352
v 4.718199 4.805298 -26.943352
v 3.882715 1.687230 -26.943352
v 1.600131 -0.595354 -26.943352
v -1.517938 -1.430838 -26.943352
v -4.636004 -0.595354 -26.943350
v -6.918588 1.687230 -26.943352
v -7.754075 4.805298 -26.943352
v -6.918588 7.923367 -26.943352
v -4.636004 10.205950 -26.943350
v -1.517938 11.041435 -26.943352
v -1.517938 4.805298 25.190588
v -1.517938 4.805298 -26.943352
vt 0.846930 0.997900
vt 0.836882 0.992876
vt 0.836882 0.794125
vt 0.846930 0.799149
vt 0.823156 0.991037
vt 0.823156 0.792286
vt 0.809430 0.992876
vt 0.809430 0.794125
vt 0.799381 0.997900
vt 0.799381 0.799149
vt 0.788773 0.774854
vt 0.776886 0.781717
vt 0.662137 0.582966
vt 0.674024 0.576103
vt 0.764999 0.788580
vt 0.650250 0.589829
vt 0.745970 0.799257
vt 0.756018 0.794233
vt 0.756018 0.992984
vt 0.745970 0.998008
vt 0.769744 0.792394
vt 0.769744 0.991145
vt 0.783470 0.794233
vt 0.783470 0.992984
vt 0.793518 0.799257
vt 0.793518 0.998008
vt 0.910276 0.575995
vt 0.922163 0.582858
vt 0.807414 0.781609
vt 0.795527 0.774746
vt 0.934050 0.589721
vt 0.819301 0.788472
vt 0.589644 0.833572
vt 0.580942 0.843620
vt 0.569055 0.819846
vt 0.592829 0.819846
vt 0.589644 0.806120
vt 0.580942 0.796072
vt 0.569055 0.792394
vt 0.557168 0.796072
vt 0.548466 0.806120
vt 0.545281 0.819846
vt 0.548466 0.833572
vt 0.557168 0.843620
vt 0.569055 0.847298
vt 0.527531 0.796072
vt 0.536233 0.806120
vt 0.515644 0.819846
vt 0.539418 0.819846
vt 0.536233 0.833572
vt 0.527531 0.843620
vt 0.515644 0.847298
vt 0.503757 0.843620
vt 0.495055 0.833572
vt 0.491870 0.819846
vt 0.495055 0.806120
vt 0.503757 0.796072
vt 0.515644 0.792394
vn 0.499380 0.864952 0.049779
vn 0.864952 0.499380 0.049779
vn 0.864952 0.499380 -0.049779
vn 0.499380 0.864952 -0.049779
vn 0.998760 0.000000 0.049779
vn 0.998760 0.000000 -0.049779
vn 0.864952 -0.499380 0.049779
vn 0.864952 -0.499380 -0.049779
vn 0.499380 -0.864952 0.049779
vn 0.499380 -0.864952 -0.049779
vn -0.000000 -0.998760 0.049779
vn 0.000000 -0.998760 -0.049779
vn -0.499380 -0.864952 0.049779
vn -0.499380 -0.864952 -0.049779
vn -0.864952 -0.499380 0.049779
vn -0.864952 -0.499380 -0.049779
vn -0.998760 0.000000 0.049779
vn -0.998760 0.000000 -0.049779
vn -0.864952 0.499380 0.049779
vn -0.864952 0.499380 -0.049779
vn -0.499380 0.864952 0.049779
vn -0.499380 0.864952 -0.049779
vn -0.000000 0.998760 0.049779
vn 0.000000 0.998760 -0.049779
vn 0.000000 0.000000 1.000000
vn -0.000000 -0.000000 -1.000000
s 1
g polySurface2 pCylinder9
usemtl initialShadingGroup
f 1/1/1 2/2/2 14/3/3 13/4/4
f 2/2/2 3/5/5 15/6/6 14/3/3
f 3/5/5 4/7/7 16/8/8 15/6/6
f 4/7/7 5/9/9 17/10/10 16/8/8
f 5/11/9 6/12/11 18/13/12 17/14/10
f 6/12/11 7/15/13 19/16/14 18/13/12
f 7/17/13 8/18/15 20/19/16 19/20/14
f 8/18/15 9/21/17 21/22/18 20/19/16
f 9/21/17 10/23/19 22/24/20 21/22/18
f 10/23/19 11/25/21 23/26/22 22/24/20
f 11/27/21 12/28/23 24/29/24 23/30/22
f 12/28/23 1/31/1 13/32/4 24/29/24
f 2/33/2 1/34/1 25/35/25
f 3/36/5 2/33/2 25/35/25
f 4/37/7 3/36/5 25/35/25
f 5/38/9 4/37/7 25/35/25
f 6/39/11 5/38/9 25/35/25
f 7/40/13 6/39/11 25/35/25
f 8/41/15 7/40/13 25/35/25
f 9/42/17 8/41/15 25/35/25
f 10/43/19 9/42/17 25/35/25
f 11/44/21 10/43/19 25/35/25
f 12/45/23 11/44/21 25/35/25
f 1/34/1 12/45/23 25/35/25
f 13/46/4 14/47/3 26/48/26
f 14/47/3 15/49/6 26/48/26
f 15/49/6 16/50/8 26/48/26
f 16/50/8 17/51/10 26/48/26
f 17/51/10 18/52/12 26/48/26
f 18/52/12 19/53/14 26/48/26
f 19/53/14 20/54/16 26/48/26
f 20/54/16 21/55/18 26/48/26
f 21/55/18 22/56/20 26/48/26
f 22/56/20 23/57/22 26/48/26
f 23/57/22 24/58/24 26/48/26
f 24/58/24 13/46/4 26/48/26
