# This file uses centimeters as units for non-parametric coordinates.

mtllib LHedge.mtl
g default
v -11.773770 0.186584 1.790829
v 11.773770 0.186584 1.790829
v -11.773770 8.450280 1.790829
v 11.773770 8.450280 1.790829
v -11.773770 8.450280 -1.790829
v 11.773770 8.450280 -1.790829
v -11.773770 0.186584 -1.790829
v 11.773770 0.186584 -1.790829
v -12.190095 8.010966 2.169018
v 12.190095 8.010966 2.169018
v 12.190095 8.010964 -2.169018
v -12.190095 8.010964 -2.169018
v -12.190095 1.433460 2.169018
v 12.190095 1.433460 2.169018
v 12.190095 1.433459 -2.169018
v -12.190095 1.433459 -2.169018
v -12.085041 8.279057 -2.018408
v 12.085041 8.279057 -2.018408
v 12.085041 8.279059 2.018408
v -12.085041 8.279059 2.018408
v -11.831058 1.082168 2.021169
v 11.831058 1.082168 2.021169
v 11.831058 1.082167 -2.021169
v -11.831058 1.082167 -2.021169
v 12.011716 1.258926 -2.095562
v 12.011716 1.258927 2.095562
v -12.011716 1.258927 2.095562
v -12.011716 1.258926 -2.095562
v 7.990272 0.187437 1.790829
v 8.239754 0.186584 -1.790829
v 8.279848 1.082167 -2.021169
v 8.406278 1.258926 -2.095562
v 8.531117 1.433459 -2.169018
v 8.531117 8.010964 -2.169018
v 8.457595 8.279057 -2.018408
v 8.239754 8.450280 -1.790829
v 7.953571 8.450280 1.790829
v 7.709977 8.279059 2.018408
v 7.628857 8.010966 2.169018
v 7.628857 1.433460 2.169018
v 7.758590 1.258927 2.095562
v 7.870261 1.081315 2.021169
v 7.709977 8.279059 11.727834
v 7.628857 8.010966 11.878444
v 12.190095 8.010966 11.878444
v 12.085041 8.279059 11.727834
v 7.628857 1.433460 11.878444
v 12.190095 1.433460 11.878444
v 7.758590 1.258927 11.804988
v 7.870261 1.081315 11.730595
v 11.831058 1.082168 11.730595
v 12.011716 1.258927 11.804988
v 7.953571 8.450280 11.500256
v 11.773770 8.450280 11.500256
v 7.990272 0.187437 11.500256
v 11.773770 0.186584 11.500256
vt 0.618048 0.244439
vt 0.618048 0.001992
vt 0.624541 0.010409
vt 0.624541 0.236022
vt 0.458718 0.244439
vt 0.458718 0.001992
vt 0.628689 0.023129
vt 0.628689 0.223302
vt 0.624541 0.778669
vt 0.618048 0.787087
vt 0.454491 0.240334
vt 0.454491 0.006097
vt 0.458718 0.787087
vt 0.628689 0.765950
vt 0.450209 0.236176
vt 0.450209 0.010255
vt 0.454491 0.782981
vt 0.428515 0.223302
vt 0.428515 0.023129
vt 0.450209 0.778823
vt 0.428515 0.765950
vt 0.907013 0.811893
vt 0.907013 0.569446
vt 0.913507 0.577863
vt 0.913507 0.803475
vt 0.747684 0.811893
vt 0.747684 0.569446
vt 0.917655 0.590582
vt 0.917655 0.790756
vt 0.743456 0.807787
vt 0.743456 0.573551
vt 0.739174 0.803630
vt 0.739174 0.577709
vt 0.717481 0.790756
vt 0.717481 0.590582
vt 0.830605 0.553057
vt 0.824111 0.544639
vt 0.824111 0.001992
vt 0.830605 0.010410
vt 0.664782 0.544639
vt 0.664782 0.001992
vt 0.834753 0.565776
vt 0.834753 0.023129
vt 0.660554 0.548745
vt 0.660554 0.006097
vt 0.656252 0.552902
vt 0.656252 0.010255
vt 0.634599 0.565776
vt 0.634599 0.023129
vt 0.175503 0.765950
vt 0.173070 0.565776
vt 0.205545 0.565776
vt 0.205545 0.765950
vt 0.005371 0.565776
vt 0.005371 0.765950
vt 0.173070 0.023129
vt 0.205545 0.023129
vt 0.177355 0.778669
vt 0.208191 0.778669
vt 0.002725 0.553057
vt 0.170999 0.553057
vt 0.002725 0.778669
vt 0.170999 0.010410
vt 0.208191 0.010410
vt 0.177980 0.787086
vt 0.209084 0.787086
vt 0.001832 0.544640
vt 0.170310 0.544640
vt 0.001832 0.787086
vt 0.170310 0.001992
vt 0.209084 0.001992
vt 0.386813 0.223303
vt 0.388934 0.023129
vt 0.418976 0.023129
vt 0.418976 0.223303
vt 0.218802 0.023129
vt 0.218802 0.223303
vt 0.389275 0.010255
vt 0.419463 0.010255
vt 0.418976 0.765950
vt 0.386813 0.765950
vt 0.218315 0.010255
vt 0.385793 0.236176
vt 0.218315 0.236176
vt 0.390350 0.006098
vt 0.420999 0.006098
vt 0.385793 0.778823
vt 0.419463 0.778823
vt 0.216779 0.006098
vt 0.384844 0.240334
vt 0.216779 0.240334
vt 0.391411 0.001992
vt 0.422515 0.001992
vt 0.384844 0.782981
vt 0.420999 0.782981
vt 0.215263 0.001992
vt 0.383741 0.244439
vt 0.215263 0.244439
vt 0.383741 0.787086
vt 0.422515 0.787086
vt 0.343123 0.950086
vt 0.343123 0.790757
vt 0.381898 0.790757
vt 0.381898 0.950086
vt 0.711839 0.821860
vt 0.552510 0.821860
vt 0.552510 0.790756
vt 0.711839 0.790756
vt 0.552510 0.998008
vt 0.711839 0.998008
vt 0.387539 0.959235
vt 0.387539 0.790757
vt 0.546868 0.790757
vt 0.546868 0.959235
vn 0.000000 0.634137 0.773221
vn 0.000000 0.020708 0.999786
vn 0.000000 0.020456 0.999791
vn 0.000000 0.630860 0.775897
vn 0.000000 1.000000 -0.000000
vn 0.000000 1.000000 -0.000000
vn 0.000000 1.000000 -0.000000
vn 0.000000 1.000000 -0.000000
vn 0.000000 0.021354 -0.999772
vn 0.000000 0.643949 -0.765069
vn 0.000000 0.636341 -0.771408
vn 0.000000 0.020780 -0.999784
vn 0.000000 -1.000000 0.000119
vn -0.000000 -1.000000 0.000119
vn -0.000116 -1.000000 0.000115
vn -0.000116 -1.000000 0.000115
vn 0.999980 0.006388 -0.000000
vn 0.999980 0.006388 -0.000000
vn 0.892509 0.451030 -0.000000
vn 0.892509 0.451029 -0.000000
vn -0.999980 0.006388 -0.000000
vn -0.999980 0.006388 -0.000000
vn -0.892509 0.451029 -0.000000
vn -0.892509 0.451030 -0.000000
vn 0.000000 -0.009309 0.999957
vn 0.000000 -0.008869 0.999961
vn 0.999903 -0.013899 0.000000
vn 0.999903 -0.013899 0.000000
vn 0.000000 -0.009964 -0.999950
vn 0.000000 -0.009107 -0.999959
vn -0.999903 -0.013899 0.000000
vn -0.999903 -0.013899 0.000000
vn 0.000017 -0.387576 0.921838
vn 0.000008 -0.277252 0.960797
vn 0.000008 -0.278171 0.960532
vn 0.000016 -0.387596 0.921829
vn 0.936985 -0.349371 0.000000
vn 0.936984 -0.349371 0.000000
vn 0.699357 -0.714773 0.000000
vn 0.699357 -0.714773 0.000000
vn 0.000000 -0.275262 -0.961369
vn 0.000000 -0.387915 -0.921695
vn 0.000000 -0.387915 -0.921695
vn 0.000000 -0.276977 -0.960877
vn -0.936984 -0.349371 0.000000
vn -0.936985 -0.349371 0.000000
vn -0.699357 -0.714773 0.000000
vn -0.699357 -0.714773 0.000000
vn 0.000000 0.799091 -0.601210
vn 0.000000 0.799091 -0.601210
vn 0.481968 0.876189 -0.000000
vn 0.481968 0.876189 -0.000000
vn 0.000000 0.799094 0.601206
vn 0.000000 0.799094 0.601206
vn -0.481968 0.876189 -0.000000
vn -0.481968 0.876189 -0.000000
vn 0.000000 -0.249311 0.968423
vn 0.000000 -0.249311 0.968424
vn 0.997960 -0.063836 0.000000
vn 0.997960 -0.063836 0.000000
vn 0.000000 -0.249089 -0.968481
vn 0.000000 -0.249089 -0.968481
vn -0.997960 -0.063836 0.000000
vn -0.997960 -0.063836 0.000000
vn 0.000021 -1.000000 0.000120
vn 0.000021 -1.000000 0.000120
vn 0.000000 -0.276977 -0.960877
vn 0.000000 -0.249089 -0.968481
vn 0.000000 -0.387915 -0.921695
vn -0.000000 -0.009107 -0.999959
vn -0.000000 0.020780 -0.999784
vn 0.000000 0.636341 -0.771408
vn 0.000000 0.799091 -0.601210
vn 0.000000 1.000000 0.000000
vn 0.000000 1.000000 0.000000
vn 0.000000 0.637533 0.770423
vn 0.000000 0.662935 0.748677
vn 0.000000 0.799095 0.601205
vn 0.000000 0.799095 0.601205
vn 0.000000 0.020854 0.999782
vn 0.000000 0.022852 0.999739
vn -0.000000 -0.009161 0.999958
vn -0.000000 -0.012108 0.999927
vn -0.000004 -0.387582 0.921835
vn -0.000005 -0.387475 0.921880
vn -0.000002 -0.276842 0.960916
vn -0.000001 -0.270951 0.962593
vn 0.000000 -0.249311 0.968423
vn 0.000000 -0.249311 0.968423
vn -0.957144 0.289614 0.000000
vn -0.957144 0.289614 0.000000
vn -0.957144 0.289614 0.000000
vn -0.957144 0.289614 0.000000
vn 0.931070 0.364842 0.000000
vn 0.931070 0.364842 0.000000
vn 0.931070 0.364842 0.000000
vn 0.931070 0.364842 0.000000
vn -1.000000 0.000000 0.000000
vn -1.000000 0.000000 0.000000
vn -1.000000 0.000000 0.000000
vn -1.000000 0.000000 0.000000
vn 1.000000 0.000000 0.000000
vn 1.000000 0.000000 0.000000
vn 1.000000 0.000000 0.000000
vn 1.000000 0.000000 0.000000
vn -0.846577 -0.532266 0.000000
vn -0.846577 -0.532266 0.000000
vn -0.846577 -0.532266 0.000000
vn -0.846577 -0.532266 0.000000
vn 0.699351 -0.714778 0.000000
vn 0.699351 -0.714778 0.000000
vn 0.699351 -0.714778 0.000000
vn 0.699351 -0.714778 0.000000
vn -0.575051 0.818117 0.000000
vn -0.575051 0.818117 0.000000
vn -0.575051 0.818117 0.000000
vn -0.575051 0.818117 0.000000
vn 0.481965 0.876190 0.000000
vn 0.481965 0.876190 0.000000
vn 0.481965 0.876190 0.000000
vn 0.481965 0.876190 0.000000
vn 0.000000 1.000000 0.000000
vn 0.000000 1.000000 0.000000
vn 0.000000 1.000000 0.000000
vn 0.000000 1.000000 0.000000
vn -0.991107 -0.133065 0.000000
vn -0.991107 -0.133065 0.000000
vn -0.991107 -0.133065 0.000000
vn -0.991107 -0.133065 0.000000
vn -0.000225 -1.000000 0.000000
vn -0.000225 -1.000000 0.000000
vn -0.000225 -1.000000 0.000000
vn -0.000225 -1.000000 0.000000
vn 0.997960 -0.063837 0.000000
vn 0.997960 -0.063837 0.000000
vn 0.997960 -0.063837 0.000000
vn 0.997960 -0.063837 0.000000
vn -0.802567 -0.596562 0.000000
vn -0.802567 -0.596562 0.000000
vn -0.802567 -0.596562 0.000000
vn -0.802567 -0.596562 0.000000
vn 0.699359 -0.714771 0.000000
vn 0.699359 -0.714771 0.000000
vn 0.699359 -0.714771 0.000000
vn 0.699359 -0.714771 0.000000
s 1
g LHedge
usemtl initialShadingGroup
f 43/63/1 44/70/2 45/71/3 46/64/4
s 2
f 36/50/5 37/51/6 4/52/7 6/53/8
s 3
f 34/65/9 35/58/10 18/59/11 11/66/12
s 4
f 29/72/13 30/73/14 8/74/15 2/75/16
s 5
f 10/1/17 11/2/18 18/3/19 19/4/20
s 6
f 12/22/21 9/23/22 20/24/23 17/25/24
s 1
f 44/101/2 47/102/25 48/103/26 45/104/3
s 5
f 14/5/27 15/6/28 11/2/18 10/1/17
s 3
f 33/105/29 34/106/9 11/107/12 15/108/30
s 6
f 16/26/31 13/27/32 9/23/22 12/22/21
s 1
f 49/94/33 50/87/34 51/88/35 52/95/36
s 5
f 22/15/37 23/16/38 25/12/39 26/11/40
s 3
f 31/78/41 32/85/42 25/86/43 23/79/44
s 6
f 24/32/45 21/33/46 27/31/47 28/30/48
s 3
f 35/58/10 36/50/49 6/53/50 18/59/11
s 5
f 19/4/20 18/3/19 6/7/51 4/8/52
s 1
f 53/56/53 43/63/1 46/64/4 54/57/54
s 6
f 17/25/24 20/24/23 3/28/55 5/29/56
s 1
f 50/87/34 55/81/57 56/80/58 51/88/35
s 5
f 2/18/59 8/19/60 23/16/38 22/15/37
s 3
f 30/73/61 31/78/41 23/79/44 8/74/62
s 6
f 7/34/63 1/35/64 21/33/46 24/32/45
s 5
f 26/11/40 25/12/39 15/6/28 14/5/27
s 1
f 47/99/25 49/94/33 52/95/36 48/100/26
s 6
f 28/30/48 27/31/47 13/27/32 16/26/31
s 3
f 32/85/42 33/92/29 15/93/30 25/86/43
s 4
f 7/76/65 30/73/14 29/72/13 1/77/66
s 3
f 24/82/67 31/78/41 30/73/61 7/76/68
f 28/89/69 32/85/42 31/78/41 24/82/67
f 16/96/70 33/92/29 32/85/42 28/89/69
f 12/109/71 34/106/9 33/105/29 16/110/70
f 17/62/72 35/58/10 34/65/9 12/69/71
f 5/55/73 36/50/49 35/58/10 17/62/72
s 2
f 3/54/74 37/51/6 36/50/5 5/55/75
s 11
f 20/60/76 38/61/77 37/51/78 3/54/79
f 9/67/80 39/68/81 38/61/77 20/60/76
f 13/111/82 40/112/83 39/113/81 9/114/80
f 27/91/84 41/90/85 40/97/83 13/98/82
f 21/84/86 42/83/87 41/90/85 27/91/84
f 1/77/88 29/72/89 42/83/87 21/84/86
s off
f 38/36/90 39/37/91 44/38/92 43/39/93
f 10/1/94 19/4/95 46/9/96 45/10/97
f 39/37/98 40/40/99 47/41/100 44/38/101
f 14/5/102 10/1/103 45/10/104 48/13/105
f 41/44/106 42/46/107 50/47/108 49/45/109
f 22/15/110 26/11/111 52/17/112 51/20/113
f 37/42/114 38/36/115 43/39/116 53/43/117
f 19/4/118 4/8/119 54/14/120 46/9/121
f 4/52/122 37/51/123 53/56/124 54/57/125
f 42/46/126 29/48/127 55/49/128 50/47/129
f 29/72/130 2/75/131 56/80/132 55/81/133
f 2/18/134 22/15/135 51/20/136 56/21/137
f 40/40/138 41/44/139 49/45/140 47/41/141
f 26/11/142 14/5/143 48/13/144 52/17/145
